<?xml version="1.0" encoding="utf-8"?>
<!-- Generator: Adobe Illustrator 23.1.1, SVG Export Plug-In . SVG Version: 6.00 Build 0)  -->
<svg version="1.1" id="Layer_1" xmlns="http://www.w3.org/2000/svg" xmlns:xlink="http://www.w3.org/1999/xlink" x="0px" y="0px"
	 viewBox="0 0 580 235" style="enable-background:new 0 0 580 235;" xml:space="preserve">
<style type="text/css">
	.st0{fill:#E73A65;}
	.st1{fill:#4B3F42;}
</style>
<g id="Page-1">
	<g id="Imported-Layers" transform="translate(1)">
		<path id="Fill-9" class="st0" d="M570.3,134.9c0.6,4.1-6.2,11.1-6.2,11.1c-15.8,17.9-36.6,16.5-36.6,16.5
			c-16.5,0-2.3-41.6-0.5-46.1c3-7.2,5.5-13,5.5-13c-0.6-7.2-7.2-3.6-7.2-3.6l-6,16.2c0,0-0.9-16.8-18.6-16.8
			c-42.8,0-51.8,39.7-51.8,39.7c-7.1,25-18.6,23.9-18.6,23.9c-18.4,0-7.2-40.6-4.4-50.8c2.8-10.2,5.5-12.6-0.8-12.6
			c0,0-2.5-0.1-4.3,2.1s-2.9,7-2.9,7c-1.2,4.5-6.7,33.3-12,42.5c-4.2,7.2-8.8,11.6-18.3,11.1c-8.1-0.4-14.1-9.7-14.7-11.4
			c-0.3-0.9-0.6-1.9-0.9-2.9c9.2-11.9,15.9-25.9,18.7-32.9C416,54.9,434.8-2,404.6,0.6c-30.2,2.5-37.3,58.1-41.5,84.6
			c-2.5,15.9-5.4,43.2,0.2,62.4c-2.5,2.9-5,5.4-7.7,7.4c-8.7,6.6-15.3,7.9-15.3,7.9c-20.3,3.4-7.9-40.7-5.1-50.9s5.5-12.6-0.8-12.6
			s-7.2,9.1-7.2,9.1c-1.2,4.5-6.9,33.6-12.3,42.7c-5.4,9.1-14.7,13-21.2,11.3c-7.6-2.1,2.9-20.8,7.1-37.5
			c4.5-18.1,2.6-25.6-6.3-25.6c-10.7,0-22.9,14.2-22.9,14.2s-0.1-14.4-8.3-14.4c-12.9,0-21.9,14.9-21.9,14.9
			c0.8-4.7-0.8-15.1-9.1-14.7c-9.9,0.5-21,12.7-21,12.7s2.3-5.4,3.4-8.5c1.3-3.3-0.6-4.3-3.6-4.3s-4.6,3.9-4.6,3.9s-4,13.8-8.1,26.2
			c-1.5,4.4-11.3,25.4-24.2,31.9c-18.2,9.2-3.4-39.9-1.6-44.3c3-7.2,5.3-13.4,5.3-13.4c-0.6-7.2-6.5-3.4-6.5-3.4s-1,0.6-2.3,4.2
			c-1.3,3.6-3.7,12-3.7,12s-0.9-16.8-18.6-16.8c-42.8,0-51.8,39.7-51.8,39.7c-5.7,7-34.5,26.3-60.8,22.7
			c-13.1-1.8-30.1-8.2-28.1-32.4c2.2-27.5,17.2-51.1,30.3-67c22.7-27.5,45.7-39.5,69.1-47.6c14.5-5,31.9-3,35.9,2
			c5.4,6.6,0.6,16.9-1,20.1c-0.9,1.8-2.6,3-3.6,4c-1,1.1-3,1.5-3.9,1.3c-0.6,1-0.8,3.1-0.4,5c0.6,3.5,3.9,3.7,6.3,3.5
			c1.4-0.2,3.3-1.5,4.3-3c5-7.3,17.2-28.6-1.8-39.7C118.4-5.4,63.1,14,23.7,66.3C2.1,95-13.2,143.4,12,161.4
			c23.5,16.8,62,3.9,83.2-12.5c0,0,0.6,20.8,27.2,20.8s35.3-16.2,35.3-16.2s0.4,20,16.7,14.9c6.3-2,14.5-9.9,17.6-14.9
			c0,0-2.1,5.5-3.6,10.1c-0.7,3.1-1.4,5.7,1.2,5.7c6.2,0,6.6-7.4,8.9-13.8c1.3-3.5,4.2-12.8,6.6-20.6c2-6.5,6.9-15.4,11.1-19.1
			c4.8-4.3,9.1-8.8,13.9-8.8c7.3,0,4.9,7.9,3.7,13.3c-0.9,4.4-8.6,32.8-11.3,43c-0.6,2.3-1.2,6.1,2.6,6.1c4.1,0,4.8-6.4,5.9-11.3
			c0.6-2.7,3.7-13.6,6.2-22.5c2-7.1,6.4-16.9,10.3-20.8s6.5-7.8,13.4-7.8c6,0,4.7,7.9,3.1,14.3c-1.5,6.4-10.5,41.7-10.5,41.7
			s-1.4,6.5,2.4,6.5c3.9,0,4.3-4.6,5.2-8.3c0.5-2,3.3-13.4,5.8-23.5c2.1-8.6,6.5-19,10-22.1c4.6-4.1,9.2-8.6,15.5-8.6
			c6.2,0,4.2,9.2,0.1,22.6s-13.8,33.6-5,38.4c3.6,2,10.5,1.7,16.8-0.7c10.2-3.8,17.7-12.5,17.7-12.5s0.2,10.9,11.1,14.3
			c2.2,0.7,14,1.3,26.7-8.9c2.1-1.6,4.1-3.5,6-5.5c4.3,8.8,11.3,14.7,22.3,14.7c0,0,13.9,0.6,24.9-14.9c0,0-0.4,14.9,18.2,14.9
			c0,0,12.7,0.5,18.4-16.5c1.9,6.1,7.8,16.3,26.4,16.3c26.6,0,35.3-16.2,35.3-16.2s-1.1,15.8,16,15.8c0,0,23,3.3,45.7-21.4
			c0,0,5.9-6.2,5.9-10.1C576.5,131.4,570.3,134.9,570.3,134.9L570.3,134.9z M157.7,140.6c0,0-9.3,21.7-35.4,21.7
			s-20.2-23.4-16.6-30.1c5.6-10.4,19.7-26.9,42.4-25.1C169.2,108.8,158.8,138.7,157.7,140.6z M370.2,138.4c-2.2-14-2.2-32.7,0-51
			c4.5-38.3,16.1-77.3,32.7-79.4c31.8-4.1-25.3,118.3-25.3,118.3C375.2,130.4,372.8,134.5,370.2,138.4z M511.5,140.1
			c0,0-9.3,21.7-35.4,21.7s-20.2-23.4-16.6-30.1c5.6-10.4,19.7-26.9,42.4-25.1C523,108.3,512.6,138.1,511.5,140.1z"/>
		<path id="Fill-10" class="st0" d="M343.2,79.8c0,0-4.8,4.8-8.4,2.4s-0.4-10,4.8-11.2S348,75,343.2,79.8"/>
		<path id="Fill-11" class="st0" d="M435.1,79.8c0,0-4.8,4.8-8.4,2.4s-0.4-10,4.8-11.2S439.9,75,435.1,79.8"/>
	</g>
</g>
<path class="st1" d="M143.4,204.4c4.3,0,7.5,1.5,10.4,4c0.4,0.3,0.4,0.9,0,1.2l-1.9,1.9c-0.3,0.4-0.7,0.4-1.1,0
	c-2-1.8-4.8-2.9-7.4-2.9c-6.1,0-10.8,5.2-10.8,11.2s4.7,11.1,10.8,11.1c3.1,0,5.3-1.2,7.4-2.8c0.4-0.3,0.8-0.3,1,0l2,1.9
	c0.3,0.3,0.3,0.9,0,1.2c-2.9,2.8-6.6,4.2-10.4,4.2c-8.6,0-15.5-6.8-15.5-15.4S134.8,204.4,143.4,204.4L143.4,204.4z M189.8,204.4
	c8.6,0,15.5,6.9,15.5,15.5s-6.9,15.4-15.5,15.4c-8.6,0-15.4-6.8-15.4-15.4S181.2,204.4,189.8,204.4z M189.8,231.2
	c6.1,0,11.2-5.1,11.2-11.3c0-6.1-5-11.4-11.2-11.4c-6.1,0-11.1,5.2-11.1,11.4C178.7,226.1,183.7,231.2,189.8,231.2L189.8,231.2z
	 M228.5,205.7c0-0.4,0.4-0.8,0.8-0.8h2.8c0.4,0,0.8,0.4,0.8,0.8v28.5c0,0.4-0.4,0.8-0.8,0.8h-2.8c-0.4,0-0.8-0.4-0.8-0.8V205.7z
	 M258,205.7c0-0.4,0.3-0.8,0.8-0.8H276c0.5,0,0.8,0.4,0.8,0.8v2.4c0,0.4-0.3,0.8-0.8,0.8h-13.6v9.9h11.5c0.4,0,0.8,0.4,0.8,0.8v2.4
	c0,0.4-0.4,0.8-0.8,0.8h-11.5v11.3c0,0.4-0.4,0.8-0.8,0.8h-2.8c-0.5,0-0.8-0.4-0.8-0.8L258,205.7L258,205.7z M299.1,205.7
	c0-0.4,0.3-0.8,0.8-0.8h17.2c0.5,0,0.8,0.4,0.8,0.8v2.4c0,0.4-0.3,0.8-0.8,0.8h-13.6v9.9h11.5c0.4,0,0.8,0.4,0.8,0.8v2.4
	c0,0.4-0.4,0.8-0.8,0.8h-11.5v11.3c0,0.4-0.4,0.8-0.8,0.8H300c-0.5,0-0.8-0.4-0.8-0.8V205.7L299.1,205.7z M340,205.7
	c0-0.4,0.4-0.8,0.8-0.8h2.9c0.5,0,0.8,0.4,0.8,0.8v18.1c0,4.3,2.8,7.3,7.1,7.3c4.4,0,7.2-3,7.2-7.2v-18.2c0-0.4,0.3-0.8,0.8-0.8h2.9
	c0.4,0,0.8,0.4,0.8,0.8v18.4c0,6.5-5,11.3-11.7,11.3c-6.8,0-11.6-4.8-11.6-11.3L340,205.7L340,205.7z M388.1,205.7
	c0-0.4,0.3-0.8,0.8-0.8h11.7c5.2,0,9.4,4.1,9.4,9.2c0,4-2.6,7.2-6.4,8.7l5.9,10.9c0.3,0.6,0,1.2-0.7,1.2h-3.2
	c-0.5,0-0.7-0.2-0.9-0.6l-5.6-11.2h-6.5v11c0,0.4-0.4,0.8-0.8,0.8H389c-0.5,0-0.8-0.4-0.8-0.8L388.1,205.7L388.1,205.7z
	 M400.3,219.5c2.8,0,5.2-2.4,5.2-5.3c0-2.8-2.5-5.1-5.2-5.1h-7.6v10.4H400.3z M433.5,205.7c0-0.4,0.3-0.8,0.8-0.8h17.2
	c0.5,0,0.8,0.4,0.8,0.8v2.4c0,0.4-0.3,0.8-0.8,0.8h-13.6v8.8h11.5c0.4,0,0.8,0.4,0.8,0.8v2.4c0,0.5-0.4,0.8-0.8,0.8h-11.5v9.2h13.6
	c0.5,0,0.8,0.4,0.8,0.8v2.4c0,0.4-0.3,0.8-0.8,0.8h-17.2c-0.5,0-0.8-0.4-0.8-0.8L433.5,205.7L433.5,205.7z"/>
</svg>
