<svg version="1.1" id="Layer_1" xmlns="http://www.w3.org/2000/svg" x="0" y="0" viewBox="0 0 580 235" xml:space="preserve">
  <style>
    .st0{fill:#db4068}.st1{fill:#4b3f42}
  </style>
  <g id="Page-1">
    <g id="Imported-Layers" transform="translate(1)">
      <path id="Fill-9" class="st0" d="M570.3 134.86c.58 4.07-6.2 11.06-6.2 11.06-15.78 17.91-36.59 16.49-36.59 16.49-16.5 0-2.35-41.64-.5-46.09 2.99-7.2 5.49-13.02 5.49-13.02-.6-7.2-7.19-3.6-7.19-3.6l-5.99 16.2s-.9-16.8-18.56-16.8c-42.81 0-51.77 39.67-51.77 39.67-7.14 25-18.59 23.95-18.59 23.95-18.41 0-7.21-40.64-4.4-50.83 2.8-10.18 5.55-12.57-.76-12.57 0 0-2.54-.08-4.28 2.1-1.74 2.18-2.92 7.02-2.92 7.02-1.16 4.46-6.69 33.32-12.03 42.49-4.2 7.22-8.8 11.57-18.27 11.12-8.14-.38-14.07-9.68-14.67-11.4-.32-.92-.63-1.9-.91-2.92 9.24-11.88 15.94-25.88 18.74-32.94C415.96 54.89 434.79-1.96 404.62.58c-30.16 2.54-37.31 58.13-41.52 84.56-2.53 15.89-5.44 43.17.18 62.39-2.49 2.88-5.05 5.4-7.67 7.4-8.71 6.64-15.29 7.9-15.29 7.9-20.28 3.41-7.9-40.68-5.1-50.86 2.8-10.18 5.55-12.57-.76-12.57s-7.2 9.11-7.2 9.11c-1.16 4.46-6.85 33.62-12.27 42.73-5.42 9.12-14.72 13.04-21.21 11.28-7.63-2.07 2.88-20.81 7.08-37.52 4.53-18.08 2.56-25.63-6.34-25.63-10.74 0-22.87 14.25-22.87 14.25s-.13-14.42-8.3-14.42c-12.89 0-21.87 14.87-21.87 14.87.77-4.65-.79-15.1-9.1-14.67-9.88.5-20.99 12.72-20.99 12.72s2.31-5.44 3.45-8.46c1.27-3.34-.6-4.29-3.58-4.29s-4.55 3.93-4.55 3.93-3.97 13.78-8.14 26.16c-1.48 4.41-11.32 25.4-24.25 31.95-18.17 9.2-3.42-39.88-1.56-44.34 2.99-7.2 5.26-13.39 5.26-13.39-.6-7.2-6.46-3.41-6.46-3.41s-.96.61-2.29 4.23c-1.34 3.61-3.7 11.97-3.7 11.97s-.9-16.8-18.56-16.8c-42.81 0-51.77 39.67-51.77 39.67-5.65 7.02-34.45 26.33-60.8 22.73-13.13-1.79-30.1-8.17-28.14-32.4 2.22-27.5 17.2-51.12 30.33-67.01 22.72-27.5 45.7-39.5 69.07-47.59 14.53-5.03 31.92-2.96 35.91 1.96 5.39 6.64.6 16.92-.99 20.1-.9 1.8-2.62 2.95-3.59 4.01-.99 1.09-2.99 1.5-3.89 1.27-.63.96-.8 3.13-.45 5.03.65 3.46 3.94 3.74 6.31 3.46 1.43-.17 3.26-1.45 4.34-3.03 4.97-7.27 17.2-28.65-1.81-39.74-23.14-13.5-78.41 5.88-117.79 58.15-21.66 28.76-36.94 77.17-11.72 95.17 23.47 16.75 61.98 3.88 83.25-12.46 0 0 .58 20.84 27.22 20.84s35.33-16.2 35.33-16.2.39 20.03 16.72 14.93c6.34-1.98 14.51-9.89 17.61-14.93 0 0-2.09 5.53-3.65 10.11-.66 3.08-1.41 5.72 1.18 5.72 6.19 0 6.6-7.44 8.93-13.84 1.26-3.48 4.19-12.83 6.59-20.62 2.01-6.53 6.95-15.44 11.09-19.14 4.76-4.26 9.12-8.84 13.95-8.84 7.29 0 4.86 7.87 3.7 13.3-.95 4.44-8.56 32.78-11.3 42.97-.61 2.27-1.21 6.11 2.59 6.11 4.14 0 4.78-6.41 5.94-11.26.65-2.72 3.7-13.55 6.25-22.53 2-7.05 6.42-16.87 10.27-20.77s6.47-7.81 13.35-7.81c6 0 4.69 7.87 3.15 14.27-1.55 6.4-10.46 41.71-10.46 41.71s-1.43 6.47 2.44 6.47 4.27-4.64 5.24-8.33c.52-1.99 3.31-13.39 5.77-23.47 2.1-8.62 6.53-19 9.96-22.08 4.6-4.13 9.2-8.57 15.5-8.57 6.22 0 4.18 9.22.11 22.61-4.07 13.39-13.83 33.58-4.99 38.41 3.64 1.99 10.47 1.68 16.8-.68 10.24-3.82 17.7-12.48 17.7-12.48s.18 10.89 11.08 14.27c2.17.67 14.03 1.26 26.72-8.85 2.07-1.65 4.07-3.51 6-5.51 4.28 8.82 11.26 14.66 22.29 14.66 0 0 13.86.59 24.92-14.88 0 0-.38 14.88 18.21 14.88 0 0 12.69.51 18.38-16.46 1.86 6.13 7.76 16.29 26.36 16.29 26.65 0 35.33-16.2 35.33-16.2s-1.07 15.83 16.04 15.83c0 0 22.96 3.31 45.74-21.45 0 0 5.88-6.2 5.88-10.08-2.72-6.03-8.91-2.53-8.91-2.53zm-412.58 5.77s-9.27 21.68-35.4 21.68-20.17-23.45-16.57-30.12c5.62-10.42 19.74-26.87 42.42-25.05 21.07 1.68 10.67 31.52 9.55 33.49zm212.46-2.26c-2.18-14.04-2.17-32.73 0-51.04 4.54-38.35 16.06-77.27 32.66-79.42 31.81-4.11-25.31 118.29-25.31 118.29-2.3 4.19-4.76 8.32-7.35 12.17zm141.27 1.71s-9.27 21.68-35.4 21.68-20.17-23.45-16.58-30.12c5.62-10.42 19.74-26.87 42.42-25.05 21.08 1.68 10.68 31.52 9.56 33.49z"/>
      <path id="Fill-10" class="st0" d="M343.23 79.83s-4.79 4.8-8.38 2.4c-3.59-2.4-.4-10 4.79-11.2 5.19-1.2 8.38 4 3.59 8.8"/>
      <path id="Fill-11" class="st0" d="M435.09 79.83s-4.79 4.8-8.38 2.4c-3.59-2.4-.4-10 4.79-11.2 5.19-1.2 8.38 4 3.59 8.8"/>
    </g>
  </g>
  <path class="st1" d="M143.35 204.43c4.34 0 7.48 1.46 10.41 4 .39.34.39.86.04 1.2l-1.89 1.94c-.3.39-.69.39-1.08 0-2.02-1.76-4.77-2.88-7.44-2.88-6.15 0-10.79 5.16-10.79 11.18s4.69 11.14 10.84 11.14c3.14 0 5.33-1.25 7.4-2.84.39-.3.77-.26 1.03-.04l1.98 1.93c.34.3.26.86-.04 1.16-2.92 2.84-6.62 4.17-10.45 4.17-8.6 0-15.52-6.84-15.52-15.44s6.91-15.52 15.51-15.52zM189.83 204.43c8.6 0 15.48 6.92 15.48 15.52s-6.88 15.44-15.48 15.44c-8.6 0-15.44-6.84-15.44-15.44s6.84-15.52 15.44-15.52zm0 26.79c6.15 0 11.18-5.12 11.18-11.27 0-6.11-5.03-11.35-11.18-11.35-6.11 0-11.14 5.25-11.14 11.35.01 6.16 5.04 11.27 11.14 11.27zM228.49 205.68c0-.43.39-.82.82-.82h2.84c.43 0 .82.39.82.82v28.47c0 .43-.39.82-.82.82h-2.84c-.43 0-.82-.39-.82-.82v-28.47zM257.99 205.68c0-.43.34-.82.82-.82H276c.47 0 .82.39.82.82v2.41c0 .43-.34.82-.82.82h-13.59v9.93h11.48c.43 0 .82.39.82.82v2.36c0 .43-.39.82-.82.82h-11.48v11.31c0 .43-.39.82-.82.82h-2.79c-.47 0-.82-.39-.82-.82v-28.47zM299.14 205.68c0-.43.34-.82.82-.82h17.2c.47 0 .82.39.82.82v2.41c0 .43-.34.82-.82.82h-13.59v9.93h11.48c.43 0 .82.39.82.82v2.36c0 .43-.39.82-.82.82h-11.48v11.31c0 .43-.39.82-.82.82h-2.79c-.47 0-.82-.39-.82-.82v-28.47zM339.99 205.68c0-.43.39-.82.82-.82h2.88c.47 0 .82.39.82.82v18.1c0 4.3 2.75 7.31 7.14 7.31 4.43 0 7.22-2.97 7.22-7.22v-18.19c0-.43.34-.82.82-.82h2.88c.43 0 .82.39.82.82v18.4c0 6.54-4.95 11.31-11.74 11.31-6.75 0-11.65-4.77-11.65-11.31v-18.4zM388.11 205.68c0-.43.34-.82.82-.82h11.7c5.16 0 9.37 4.08 9.37 9.2 0 3.96-2.62 7.22-6.36 8.73l5.89 10.92c.3.56 0 1.25-.73 1.25h-3.22c-.47 0-.73-.21-.9-.56l-5.63-11.22h-6.49v10.96c0 .43-.39.82-.82.82h-2.79c-.47 0-.82-.39-.82-.82v-28.46zm12.16 13.8c2.79 0 5.25-2.36 5.25-5.33 0-2.79-2.45-5.12-5.25-5.12h-7.65v10.45h7.65zM433.47 205.68c0-.43.34-.82.82-.82h17.2c.47 0 .82.39.82.82v2.41c0 .43-.34.82-.82.82H437.9v8.77h11.48c.43 0 .82.39.82.82v2.41c0 .47-.39.82-.82.82H437.9v9.25h13.59c.47 0 .82.39.82.82v2.37c0 .43-.34.82-.82.82h-17.2c-.47 0-.82-.39-.82-.82v-28.49z"/>
</svg>