<svg xmlns="http://www.w3.org/2000/svg" width="284" height="115">
  <style>
    .st0{fill:#db4068}.st1{fill:#4b3f42}
  </style>
  <g id="Page-1_1_">
    <g id="Imported-Layers_1_" transform="translate(1)">
      <path id="Fill-9_1_" class="st0" d="M278.6 65.8c.3 2-3 5.4-3 5.4-7.7 8.8-17.9 8.1-17.9 8.1-8.1 0-1.2-20.4-.2-22.6 1.5-3.5 2.7-6.4 2.7-6.4-.3-3.5-3.5-1.8-3.5-1.8l-2.9 7.9s-.4-8.2-9.1-8.2c-21 0-25.3 19.4-25.3 19.4-3.5 12.2-9.1 11.7-9.1 11.7-9 0-3.5-19.9-2.2-24.9 1.4-5 2.7-6.2-.4-6.2 0 0-1.2 0-2.1 1-.9 1.1-1.4 3.4-1.4 3.4-.6 2.2-3.3 16.3-5.9 20.8-2.1 3.5-4.3 5.7-8.9 5.4-4-.2-6.9-4.7-7.2-5.6-.2-.5-.3-.9-.4-1.4 4.5-5.8 7.8-12.7 9.2-16.1 12.3-29.3 21.5-57.1 6.7-55.9-14.8 1.2-18.3 28.4-20.3 41.4-1.2 7.8-2.7 21.1.1 30.5-1.2 1.4-2.5 2.6-3.8 3.6-4.3 3.2-7.5 3.9-7.5 3.9-9.9 1.7-3.9-19.9-2.5-24.9s2.7-6.2-.4-6.2-3.5 4.5-3.5 4.5c-.6 2.2-3.4 16.5-6 20.9-2.7 4.5-7.2 6.4-10.4 5.5-3.7-1 1.4-10.2 3.5-18.4 2.2-8.8 1.3-12.5-3.1-12.5-5.3 0-11.2 7-11.2 7s-.1-7.1-4.1-7.1c-6.3 0-10.7 7.3-10.7 7.3.4-2.3-.4-7.4-4.5-7.2-4.8.2-10.3 6.2-10.3 6.2s1.1-2.7 1.7-4.1c.6-1.6-.3-2.1-1.8-2.1s-2.2 1.9-2.2 1.9-1.9 6.7-4 12.8C96 65 91.2 75.2 84.8 78.4c-8.8 4.9-1.6-19.2-.7-21.4 1.5-3.5 2.6-6.6 2.6-6.6-.3-3.5-3.2-1.7-3.2-1.7s-.5.3-1.1 2.1c-.7 1.8-1.8 5.9-1.8 5.9s-.4-8.2-9.1-8.2c-21 0-25.3 19.4-25.3 19.4-2.8 3.4-16.9 12.9-29.8 11.1-6.4-.9-14.7-4-13.8-15.9 1.1-13.5 8.4-25 14.8-32.8C28.6 17 39.8 11.1 51.3 7.1c7.1-2.5 15.6-1.4 17.6 1 2.6 3.3.3 8.3-.5 9.8-.4.9-1.3 1.4-1.8 2-.5.5-1.5.7-1.9.6-.3.5-.4 1.5-.2 2.5.3 1.7 1.9 1.8 3.1 1.7.7-.1 1.6-.7 2.1-1.5 2.4-3.6 8.4-14-.9-19.4-11.3-6.7-38.4 2.8-57.6 28.4C.5 46.3-6.9 70 5.4 78.8c11.5 8.2 30.3 1.9 40.7-6.1 0 0 .3 10.2 13.3 10.2S76.8 75 76.8 75s.2 9.8 8.2 7.3c3.1-1 7.1-4.8 8.6-7.3 0 0-1 2.7-1.8 4.9-.3 1.5-.7 2.8.6 2.8 3 0 3.2-3.6 4.4-6.8.6-1.7 2.1-6.3 3.2-10.1 1-3.2 3.4-7.6 5.4-9.4 2.3-2.1 4.5-4.3 6.8-4.3 3.6 0 2.4 3.9 1.8 6.5-.5 2.2-4.2 16-5.5 21-.3 1.1-.6 3 1.3 3 2 0 2.3-3.1 2.9-5.5.3-1.3 1.8-6.6 3.1-11 1-3.4 3.1-8.3 5-10.2 1.9-1.9 3.2-3.8 6.5-3.8 2.9 0 2.3 3.9 1.5 7-.8 3.1-5.1 20.4-5.1 20.4s-.7 3.2 1.2 3.2 2.1-2.3 2.6-4.1c.3-1 1.6-6.6 2.8-11.5 1-4.2 3.2-9.3 4.9-10.8 2.3-2 4.5-4.2 7.6-4.2 3 0 2 4.5.1 11.1-2 6.6-6.8 16.4-2.4 18.8 1.8 1 5.1.8 8.2-.3 5-1.9 8.7-6.1 8.7-6.1s.1 5.3 5.4 7c1.1.3 6.9.6 13.1-4.3 1-.8 2-1.7 2.9-2.7 2.1 4.3 5.5 7.2 10.9 7.2 0 0 6.8.3 12.2-7.3 0 0-.2 7.3 8.9 7.3 0 0 6.2.3 9-8.1.9 3 3.8 8 12.9 8 13 0 17.3-7.9 17.3-7.9s-.5 7.7 7.8 7.7c0 0 11.2 1.6 22.4-10.5 0 0 2.9-3 2.9-4.9-1.4-3-4.5-1.3-4.5-1.3zM76.7 68.6s-4.5 10.6-17.3 10.6-9.9-11.5-8.1-14.7C54 59.4 60.9 51.3 72 52.2c10.4.8 5.3 15.4 4.7 16.4zm104-1.1c-1.1-6.9-1.1-16 0-25 2.2-18.8 7.9-37.8 16-38.9 15.6-2-12.4 57.9-12.4 57.9-1.1 2.1-2.3 4.1-3.6 6zm69.1.8s-4.5 10.6-17.3 10.6-9.9-11.5-8.1-14.7c2.8-5.1 9.7-13.2 20.8-12.3 10.3.9 5.2 15.5 4.6 16.4z"/>
      <path id="Fill-10_1_" class="st0" d="M167.5 38.8s-2.3 2.3-4.1 1.2c-1.8-1.2-.2-4.9 2.3-5.5 2.6-.6 4.2 2 1.8 4.3"/>
      <path id="Fill-11_1_" class="st0" d="M212.5 38.8s-2.3 2.3-4.1 1.2c-1.8-1.2-.2-4.9 2.3-5.5 2.5-.6 4.1 2 1.8 4.3"/>
    </g>
  </g>
  <path class="st1" d="M70.2 99.8c2.1 0 3.7.7 5.1 2 .2.2.2.4 0 .6l-.9.9c-.1.2-.3.2-.5 0-1-.9-2.3-1.4-3.6-1.4-3 0-5.3 2.5-5.3 5.5 0 2.9 2.3 5.5 5.3 5.5 1.5 0 2.6-.6 3.6-1.4.2-.1.4-.1.5 0l1 .9c.2.1.1.4 0 .6-1.4 1.4-3.2 2-5.1 2-4.2 0-7.6-3.3-7.6-7.6s3.3-7.6 7.5-7.6zM92.9 99.8c4.2 0 7.6 3.4 7.6 7.6s-3.4 7.6-7.6 7.6c-4.2 0-7.6-3.3-7.6-7.6s3.4-7.6 7.6-7.6zm0 13.1c3 0 5.5-2.5 5.5-5.5s-2.5-5.6-5.5-5.6-5.5 2.6-5.5 5.6c.1 3 2.6 5.5 5.5 5.5zM111.9 100.4c0-.2.2-.4.4-.4h1.4c.2 0 .4.2.4.4v13.9c0 .2-.2.4-.4.4h-1.4c-.2 0-.4-.2-.4-.4v-13.9zM126.3 100.4c0-.2.2-.4.4-.4h8.4c.2 0 .4.2.4.4v1.2c0 .2-.2.4-.4.4h-6.7v4.9h5.6c.2 0 .4.2.4.4v1.2c0 .2-.2.4-.4.4h-5.6v5.5c0 .2-.2.4-.4.4h-1.4c-.2 0-.4-.2-.4-.4v-14zM146.4 100.4c0-.2.2-.4.4-.4h8.4c.2 0 .4.2.4.4v1.2c0 .2-.2.4-.4.4h-6.7v4.9h5.6c.2 0 .4.2.4.4v1.2c0 .2-.2.4-.4.4h-5.6v5.5c0 .2-.2.4-.4.4h-1.4c-.2 0-.4-.2-.4-.4v-14zM166.4 100.4c0-.2.2-.4.4-.4h1.4c.2 0 .4.2.4.4v8.9c0 2.1 1.3 3.6 3.5 3.6s3.5-1.5 3.5-3.5v-8.9c0-.2.2-.4.4-.4h1.4c.2 0 .4.2.4.4v9c0 3.2-2.4 5.5-5.7 5.5-3.3 0-5.7-2.3-5.7-5.5v-9.1zM190 100.4c0-.2.2-.4.4-.4h5.7c2.5 0 4.6 2 4.6 4.5 0 1.9-1.3 3.5-3.1 4.3l2.9 5.3c.1.3 0 .6-.4.6h-1.6c-.2 0-.4-.1-.4-.3l-2.8-5.5h-3.2v5.4c0 .2-.2.4-.4.4h-1.4c-.2 0-.4-.2-.4-.4v-13.9zm5.9 6.8c1.4 0 2.6-1.2 2.6-2.6 0-1.4-1.2-2.5-2.6-2.5h-3.7v5.1h3.7zM212.2 100.4c0-.2.2-.4.4-.4h8.4c.2 0 .4.2.4.4v1.2c0 .2-.2.4-.4.4h-6.7v4.3h5.6c.2 0 .4.2.4.4v1.2c0 .2-.2.4-.4.4h-5.6v4.5h6.7c.2 0 .4.2.4.4v1.2c0 .2-.2.4-.4.4h-8.4c-.2 0-.4-.2-.4-.4v-14z"/>
</svg>
