<svg version="1.1" id="Layer_1" xmlns="http://www.w3.org/2000/svg" x="0" y="0" viewBox="0 0 100 32.92" xml:space="preserve">
  <style>
    .st0{fill:#ea4335}.st2{fill:#4285f4}
  </style>
  <path class="st0" d="M42.79 17.32c0 4.74-3.7 8.23-8.25 8.23s-8.25-3.49-8.25-8.23c0-4.77 3.7-8.23 8.25-8.23s8.25 3.46 8.25 8.23zm-3.61 0c0-2.96-2.15-4.98-4.64-4.98-2.49 0-4.64 2.02-4.64 4.98 0 2.93 2.15 4.98 4.64 4.98 2.49.01 4.64-2.05 4.64-4.98z"/>
  <path d="M60.6 17.32c0 4.74-3.7 8.23-8.25 8.23s-8.25-3.49-8.25-8.23c0-4.77 3.7-8.23 8.25-8.23s8.25 3.46 8.25 8.23zm-3.62 0c0-2.96-2.15-4.98-4.64-4.98-2.49 0-4.64 2.02-4.64 4.98 0 2.93 2.15 4.98 4.64 4.98 2.5.01 4.64-2.05 4.64-4.98z" fill="#fbbc05"/>
  <path class="st2" d="M77.66 9.59v14.77c0 6.07-3.58 8.56-7.82 8.56-3.99 0-6.39-2.67-7.29-4.85l3.14-1.31c.56 1.34 1.93 2.92 4.14 2.92 2.71 0 4.39-1.67 4.39-4.82v-1.18h-.12c-.81 1-2.37 1.87-4.33 1.87-4.11 0-7.88-3.58-7.88-8.19 0-4.64 3.77-8.26 7.88-8.26 1.96 0 3.52.87 4.33 1.84h.13V9.6l3.43-.01zm-3.18 7.76c0-2.9-1.93-5.01-4.39-5.01-2.49 0-4.58 2.12-4.58 5.01 0 2.87 2.09 4.95 4.58 4.95 2.46.01 4.39-2.08 4.39-4.95z"/>
  <path d="M83.31.94v24.11h-3.52V.94h3.52z" fill="#34a853"/>
  <path class="st0" d="M97.04 20.03l2.8 1.87c-.9 1.34-3.09 3.65-6.85 3.65-4.67 0-8.16-3.61-8.16-8.23 0-4.89 3.52-8.23 7.76-8.23 4.27 0 6.36 3.4 7.04 5.23l.37.93-11 4.55c.84 1.65 2.15 2.49 3.99 2.49 1.84.02 3.12-.89 4.05-2.26zm-8.63-2.96l7.35-3.05c-.4-1.03-1.62-1.74-3.05-1.74-1.84 0-4.39 1.62-4.3 4.79z"/>
  <path class="st2" d="M12.95 15.18v-3.49h11.76c.11.61.17 1.33.17 2.11 0 2.62-.72 5.86-3.02 8.16-2.24 2.34-5.11 3.58-8.91 3.58C5.92 25.55 0 19.81 0 12.77S5.92 0 12.96 0c3.89 0 6.67 1.53 8.75 3.52l-2.46 2.46c-1.49-1.4-3.52-2.49-6.29-2.49-5.14 0-9.16 4.14-9.16 9.28s4.02 9.28 9.16 9.28c3.33 0 5.23-1.34 6.45-2.56.99-.99 1.64-2.4 1.89-4.32l-8.35.01z"/>
</svg>