<?xml version="1.0" encoding="UTF-8"?>
<svg width="28px" height="28px" viewBox="0 0 28 28" version="1.1" xmlns="http://www.w3.org/2000/svg" xmlns:xlink="http://www.w3.org/1999/xlink">
    <!-- Generator: Sketch 61.2 (89653) - https://sketch.com -->
    <title>Untitled</title>
    <desc>Created with Sketch.</desc>
    <g id="Page-1" stroke="none" stroke-width="1" fill="none" fill-rule="evenodd">
        <path d="M21.328125,27.4765625 C22.203125,27.4765625 23.0325521,27.3033854 23.8164062,26.9570312 C24.5820312,26.6289062 25.2565104,26.1731771 25.8398438,25.5898438 C26.4231771,25.0065104 26.8789062,24.3229167 27.2070312,23.5390625 C27.5533854,22.7734375 27.7265625,21.9440104 27.7265625,21.0507812 L27.7265625,6.44921875 C27.7265625,5.55598958 27.5533854,4.7265625 27.2070312,3.9609375 C26.8789062,3.17708333 26.4231771,2.49348958 25.8398438,1.91015625 C25.2565104,1.32682292 24.5729167,0.87109375 23.7890625,0.54296875 C23.0234375,0.196614583 22.1940104,0.0234375 21.3007812,0.0234375 L6.69921875,0.0234375 C5.80598958,0.0234375 4.9765625,0.196614583 4.2109375,0.54296875 C3.42708333,0.87109375 2.74348958,1.32682292 2.16015625,1.91015625 C1.57682292,2.49348958 1.12109375,3.17708333 0.79296875,3.9609375 C0.446614583,4.7265625 0.2734375,5.55598958 0.2734375,6.44921875 L0.2734375,21.078125 C0.2734375,21.953125 0.446614583,22.7825521 0.79296875,23.5664062 C1.12109375,24.3320312 1.57682292,25.0065104 2.16015625,25.5898438 C2.74348958,26.1731771 3.42708333,26.6289062 4.2109375,26.9570312 C4.9765625,27.3033854 5.80598958,27.4765625 6.69921875,27.4765625 L21.328125,27.4765625 Z M21.3007812,25.9179688 L6.69921875,25.9179688 C5.35026042,25.9179688 4.20182292,25.4440104 3.25390625,24.4960938 C2.30598958,23.5481771 1.83203125,22.3997396 1.83203125,21.0507812 L1.83203125,6.44921875 C1.83203125,5.10026042 2.30598958,3.95182292 3.25390625,3.00390625 C4.20182292,2.05598958 5.35026042,1.58203125 6.69921875,1.58203125 L21.328125,1.58203125 C22.6770833,1.58203125 23.8255208,2.05598958 24.7734375,3.00390625 C25.7213542,3.95182292 26.1953125,5.10026042 26.1953125,6.44921875 L26.1953125,21.0507812 L26.1679688,21.0507812 C26.1679688,22.3997396 25.6940104,23.5481771 24.7460938,24.4960938 C23.7981771,25.4440104 22.6497396,25.9179688 21.3007812,25.9179688 Z M21.5195312,8.0625 C21.7747396,8.0625 22.016276,8.01692708 22.2441406,7.92578125 C22.4720052,7.83463542 22.6770833,7.69791667 22.859375,7.515625 C23.0234375,7.33333333 23.155599,7.12825521 23.2558594,6.90039062 C23.3561198,6.67252604 23.40625,6.44010417 23.40625,6.203125 L23.40625,6.1484375 C23.40625,5.91145833 23.3561198,5.68359375 23.2558594,5.46484375 C23.155599,5.24609375 23.0234375,5.04557292 22.859375,4.86328125 C22.7135417,4.68098958 22.5175781,4.54427083 22.2714844,4.453125 C22.0253906,4.36197917 21.7747396,4.31640625 21.5195312,4.31640625 C21.2825521,4.31640625 21.0501302,4.36197917 20.8222656,4.453125 C20.594401,4.54427083 20.3893229,4.68098958 20.2070312,4.86328125 C20.0247396,5.04557292 19.8880208,5.25065104 19.796875,5.47851562 C19.7057292,5.70638021 19.6601562,5.94791667 19.6601562,6.203125 C19.6601562,6.44010417 19.7057292,6.67252604 19.796875,6.90039062 C19.8880208,7.12825521 20.0247396,7.33333333 20.2070312,7.515625 C20.3893229,7.69791667 20.594401,7.83463542 20.8222656,7.92578125 C21.0501302,8.01692708 21.2825521,8.0625 21.5195312,8.0625 Z M14,20.2304688 C14.8932292,20.2304688 15.7317708,20.0572917 16.515625,19.7109375 C17.2994792,19.3645833 17.9785156,18.8997396 18.5527344,18.3164062 C19.1269531,17.7330729 19.5872396,17.0494792 19.9335938,16.265625 C20.2799479,15.4817708 20.453125,14.6432292 20.453125,13.75 C20.453125,12.8567708 20.2799479,12.0182292 19.9335938,11.234375 C19.5872396,10.4505208 19.1269531,9.76692708 18.5527344,9.18359375 C17.9785156,8.60026042 17.2994792,8.13541667 16.515625,7.7890625 C15.7317708,7.44270833 14.8932292,7.26953125 14,7.26953125 C13.1067708,7.26953125 12.2682292,7.44270833 11.484375,7.7890625 C10.7005208,8.13541667 10.0169271,8.60026042 9.43359375,9.18359375 C8.85026042,9.76692708 8.38541667,10.4505208 8.0390625,11.234375 C7.69270833,12.0182292 7.51953125,12.8567708 7.51953125,13.75 C7.51953125,14.6432292 7.69270833,15.4817708 8.0390625,16.265625 C8.38541667,17.0494792 8.85026042,17.7330729 9.43359375,18.3164062 C10.0169271,18.8997396 10.7005208,19.3645833 11.484375,19.7109375 C12.2682292,20.0572917 13.1067708,20.2304688 14,20.2304688 Z M14,18.671875 C12.6510417,18.671875 11.4934896,18.1888021 10.5273438,17.2226562 C9.56119792,16.2565104 9.078125,15.0989583 9.078125,13.75 C9.078125,12.4010417 9.56119792,11.2434896 10.5273438,10.2773438 C11.4934896,9.31119792 12.6510417,8.828125 14,8.828125 C15.3489583,8.828125 16.5019531,9.31119792 17.4589844,10.2773438 C18.4160156,11.2434896 18.8945312,12.4010417 18.8945312,13.75 C18.8945312,15.0989583 18.4160156,16.2565104 17.4589844,17.2226562 C16.5019531,18.1888021 15.3489583,18.671875 14,18.671875 Z" id="" fill="#000000" fill-rule="nonzero"></path>
    </g>
</svg>